<svg xmlns="http://www.w3.org/2000/svg" viewBox="0 0 128 128">
  <path fill="#1374AB" d="M0 0h128v128H0z"/>
  <path fill="#136C9E" d="M20.922 107.077l3.62-14.411L70.688 43.75l2.958-6.396 19.87-19.307L128 52.532V128H41.844l-20.922-20.923"/>
  <path fill="#EEEBE1" d="M103.672 62.509c-7.956 7.955-19.593 9.914-29.389 5.877l-32.12 38.71c-5.877 5.877-15.377 5.877-21.254 0-5.878-5.878-5.878-15.378 0-21.195l38.709-32.179c-4.037-9.796-2.078-21.433 5.877-29.389 7.6-7.6 18.524-9.618 28.022-6.293L76.361 35.198l16.743 16.743 16.979-17.039c3.148 9.38 1.069 20.126-6.411 27.607zm-76.411 38.234c2.375 2.316 6.175 2.316 8.491 0 2.375-2.374 2.375-6.175 0-8.489-2.316-2.375-6.115-2.375-8.491 0-2.315 2.314-2.315 6.115 0 8.489z"/>
  <path fill="#EF4043" d="M63.998 112.369c9.026-3.795 15.559-10.273 19.082-16.833 3.47-6.532 3.958-13.038.868-16.94-2.793-3.498-6.424-4.826-10.111-4.718-3.687.109-7.264 1.708-9.839 3.957-2.575-2.249-6.153-3.848-9.84-3.957-3.686-.108-7.318 1.22-10.11 4.718-3.091 3.902-2.603 10.408.921 16.94 3.47 6.56 10.003 13.038 19.029 16.833z"/>
</svg>